<svg width="47" height="47" viewBox="0 0 47 47" fill="none" xmlns="http://www.w3.org/2000/svg">
<path d="M42.7025 19.664H41.1251V19.5827H23.5001V27.416H34.5676C32.953 31.976 28.6143 35.2493 23.5001 35.2493C17.0111 35.2493 11.7501 29.9883 11.7501 23.4993C11.7501 17.0104 17.0111 11.7493 23.5001 11.7493C26.4954 11.7493 29.2204 12.8793 31.2952 14.725L36.8344 9.18589C33.3368 5.92624 28.6583 3.91602 23.5001 3.91602C12.6852 3.91602 3.91675 12.6845 3.91675 23.4993C3.91675 34.3142 12.6852 43.0827 23.5001 43.0827C34.315 43.0827 43.0834 34.3142 43.0834 23.4993C43.0834 22.1863 42.9483 20.9046 42.7025 19.664Z" fill="#FFC107"/>
<path d="M6.17456 14.3843L12.6087 19.1029C14.3496 14.7926 18.5659 11.7493 23.4999 11.7493C26.4952 11.7493 29.2202 12.8793 31.2951 14.725L36.8342 9.18589C33.3366 5.92624 28.6582 3.91602 23.4999 3.91602C15.978 3.91602 9.45477 8.16266 6.17456 14.3843Z" fill="#FF3D00"/>
<path d="M23.5 43.0825C28.5584 43.0825 33.1546 41.1467 36.6296 37.9987L30.5686 32.8698C28.5364 34.4153 26.0531 35.2512 23.5 35.2492C18.4064 35.2492 14.0814 32.0013 12.452 27.4688L6.06592 32.3891C9.30696 38.7311 15.8889 43.0825 23.5 43.0825Z" fill="#4CAF50"/>
<path d="M42.7024 19.6653H41.125V19.584H23.5V27.4173H34.5675C33.7952 29.5876 32.4039 31.484 30.5657 32.8723L30.5686 32.8703L36.6296 37.9992C36.2008 38.3889 43.0833 33.2923 43.0833 23.5007C43.0833 22.1876 42.9482 20.9059 42.7024 19.6653Z" fill="#1976D2"/>
</svg>
