<svg width="36" height="34" viewBox="0 0 36 34" fill="none" xmlns="http://www.w3.org/2000/svg">
<path d="M6.683 0.788025C6.894 0.541025 7.156 0.341994 7.451 0.205994C7.746 0.0699936 8.06801 0 8.39301 0H27.608C27.932 0 28.254 0.0699936 28.549 0.205994C28.844 0.341994 29.106 0.541025 29.317 0.788025L35.188 7.63702C35.712 8.24802 36 9.02697 36 9.83197V10.406C36 11.52 35.652 12.606 35.005 13.512C34.358 14.419 33.444 15.1 32.39 15.461C31.337 15.823 30.197 15.846 29.13 15.528C28.062 15.21 27.121 14.566 26.438 13.687C25.938 14.33 25.299 14.85 24.567 15.208C23.836 15.565 23.033 15.751 22.219 15.75C21.405 15.751 20.601 15.565 19.87 15.208C19.139 14.85 18.499 14.33 18 13.687C17.501 14.33 16.861 14.85 16.13 15.208C15.399 15.565 14.595 15.751 13.781 15.75C12.967 15.751 12.164 15.565 11.433 15.208C10.701 14.85 10.062 14.33 9.562 13.687C8.879 14.566 7.93799 15.21 6.87 15.528C5.803 15.846 4.663 15.823 3.61 15.461C2.556 15.1 1.642 14.419 0.994995 13.512C0.347995 12.606 0 11.52 0 10.406V9.83197C0 9.02697 0.287996 8.24802 0.811996 7.63702L6.685 0.784973L6.683 0.788025ZM10.688 10.406C10.688 11.227 11.013 12.014 11.594 12.594C12.174 13.174 12.961 13.5 13.781 13.5C14.602 13.5 15.389 13.174 15.969 12.594C16.549 12.014 16.875 11.227 16.875 10.406C16.875 10.108 16.994 9.82202 17.205 9.61102C17.415 9.40002 17.702 9.28101 18 9.28101C18.298 9.28101 18.585 9.40002 18.795 9.61102C19.006 9.82202 19.125 10.108 19.125 10.406C19.125 11.227 19.451 12.014 20.031 12.594C20.611 13.174 21.398 13.5 22.219 13.5C23.039 13.5 23.826 13.174 24.406 12.594C24.987 12.014 25.312 11.227 25.312 10.406C25.312 10.108 25.431 9.82202 25.642 9.61102C25.853 9.40002 26.139 9.28101 26.438 9.28101C26.736 9.28101 27.022 9.40002 27.233 9.61102C27.444 9.82202 27.562 10.108 27.562 10.406C27.562 11.227 27.888 12.014 28.469 12.594C29.049 13.174 29.836 13.5 30.656 13.5C31.477 13.5 32.264 13.174 32.844 12.594C33.424 12.014 33.75 11.227 33.75 10.406V9.83197C33.75 9.56397 33.654 9.30501 33.48 9.10101L27.608 2.25H8.39301L2.52 9.10101C2.346 9.30501 2.25 9.56397 2.25 9.83197V10.406C2.25 11.227 2.57601 12.014 3.15601 12.594C3.73601 13.174 4.52299 13.5 5.34399 13.5C6.16399 13.5 6.95101 13.174 7.53101 12.594C8.11201 12.014 8.438 11.227 8.438 10.406C8.438 10.108 8.556 9.82202 8.767 9.61102C8.978 9.40002 9.264 9.28101 9.562 9.28101C9.861 9.28101 10.147 9.40002 10.358 9.61102C10.569 9.82202 10.688 10.108 10.688 10.406ZM3.375 16.875C3.673 16.875 3.96 16.994 4.17 17.205C4.381 17.415 4.5 17.702 4.5 18V31.5H6.75V20.25C6.75 19.653 6.987 19.081 7.409 18.659C7.831 18.237 8.403 18 9 18H15.75C16.347 18 16.919 18.237 17.341 18.659C17.763 19.081 18 19.653 18 20.25V31.5H31.5V18C31.5 17.702 31.619 17.415 31.83 17.205C32.04 16.994 32.327 16.875 32.625 16.875C32.923 16.875 33.21 16.994 33.42 17.205C33.631 17.415 33.75 17.702 33.75 18V31.5H34.875C35.173 31.5 35.46 31.619 35.67 31.83C35.881 32.04 36 32.327 36 32.625C36 32.923 35.881 33.21 35.67 33.42C35.46 33.631 35.173 33.75 34.875 33.75H1.125C0.827 33.75 0.540002 33.631 0.330002 33.42C0.119002 33.21 0 32.923 0 32.625C0 32.327 0.119002 32.04 0.330002 31.83C0.540002 31.619 0.827 31.5 1.125 31.5H2.25V18C2.25 17.702 2.369 17.415 2.58 17.205C2.79 16.994 3.077 16.875 3.375 16.875ZM9 31.5H15.75V20.25H9V31.5ZM20.25 20.25C20.25 19.653 20.487 19.081 20.909 18.659C21.331 18.237 21.903 18 22.5 18H27C27.597 18 28.169 18.237 28.591 18.659C29.013 19.081 29.25 19.653 29.25 20.25V27C29.25 27.597 29.013 28.169 28.591 28.591C28.169 29.013 27.597 29.25 27 29.25H22.5C21.903 29.25 21.331 29.013 20.909 28.591C20.487 28.169 20.25 27.597 20.25 27V20.25ZM27 20.25H22.5V27H27V20.25Z" fill="#FEFEFE"/>
</svg>
